# xmcd
#
# Track frame offsets: 
#        150
#        12075
#        21198
#        35715
#        47955
#        61008
#        72555
#        85548
#        97968
#        110713
#        122440
#        134853
#        145943
#        161750
#        174528
#
# Disc length: 2494 seconds
#
# Revision: 2
# Processed by: cddbd v1.5.2PL0 Copyright (c) Steve Scherf et al.
# Submitted via: ExactAudioCopy v1.0b3
#
DISCID=d109bc0f
DTITLE=Sunnyland Slim - House Rent Party
DYEAR=1992
DGENRE=Blues
TTITLE0=I'm Just A Lonesome Man
TTITLE1=Sad Old Sunday (Mother's Day)
TTITLE2=Boogie Man
TTITLE3=Hard Time (When Mother's Gone)
TTITLE4=Chicago Woman
TTITLE5=I'm In Love
TTITLE6=Bad Times (Cost Of Living)
TTITLE7=Nervous Breakdown
TTITLE8=It Keeps Rainin'
TTITLE9=Brown Skin Woman
TTITLE10=Old Age Has Got Me
TTITLE11=That's All Right
TTITLE12=Sad Old Sunday
TTITLE13=I'm Just A Lonesome Man
TTITLE14=Bad Times
EXTD=
EXTT0=
EXTT1=
EXTT2=
EXTT3=
EXTT4=
EXTT5=
EXTT6=
EXTT7=
EXTT8=
EXTT9=
EXTT10=
EXTT11=
EXTT12=
EXTT13=
EXTT14=
PLAYORDER=
